<svg xmlns="http://www.w3.org/2000/svg" width="30.849" height="30.849" viewBox="0 0 30.849 30.849">
  <path id="Icon_metro-youtube" data-name="Icon metro-youtube" d="M11.4,1.928,9.319,6.062,7.234,1.928H4.576L8.333,8.475l.022-.013V13.5h1.928V8.462l.022.013,3.757-6.547Zm5.628,3.856a.977.977,0,0,1,.964.964V10.6a.964.964,0,1,1-1.928,0V6.748a.977.977,0,0,1,.964-.964Zm0-1.928a2.9,2.9,0,0,0-2.892,2.892V10.6a2.892,2.892,0,1,0,5.784,0V6.748a2.9,2.9,0,0,0-2.892-2.892Zm8.676,0v7.591c-.841.7-1.928,1.125-1.928-1.375V3.856H21.851v6.607h0c.03,1.594.366,4.464,3.853,2.13v.9h1.928V3.856H25.707ZM28.6,23.136a.965.965,0,0,0-.964.964v.964h1.928V24.1a.965.965,0,0,0-.964-.964Zm-8.676.964v5.061c.653.653,1.928.723,1.928-.241V24.4C21.851,23.438,20.887,23.136,19.923,24.1Zm13.339-4.653a4.009,4.009,0,0,0-3.942-3.866c-2.1-.1-6.912-.157-11.138-.157s-9.378.052-11.48.157A4.009,4.009,0,0,0,2.76,19.447c-.126,2.263-.189,3.083-.189,4.215s.063,2.829.189,5.092A4.009,4.009,0,0,0,6.7,32.619c2.1.1,7.255.157,11.48.157s9.036-.052,11.138-.157a4.009,4.009,0,0,0,3.942-3.866q.158-2.829.158-5.092c0-1.509-.053-2.329-.158-4.215ZM8.355,30.849H6.427v-9.64H4.5V19.28h5.784v1.928H8.355Zm7.712,0H14.139v-.9c-3.665,2.057-3.823.066-3.853-1.528h0V23.136h1.928v5.312c0,1.165,1.087,1.052,1.928.35V23.136h1.928Zm7.712-1.956c0,2.015-2.064,2.6-3.856,1.036v.92H17.995V19.28h1.928v3.133c1.928-1.928,3.856-1.205,3.856.723Zm7.712-3.829v.964H27.635v1.928a.964.964,0,1,0,1.928,0v-.964h1.928v.964a2.892,2.892,0,1,1-5.784,0V24.1a2.892,2.892,0,0,1,5.784,0v.964Z" transform="translate(-2.571 -1.928)" fill="#fff"/>
</svg>
