<svg xmlns="http://www.w3.org/2000/svg" width="66.04" height="33.021" viewBox="0 0 66.04 33.021">
  <path id="icon_truck" d="M11.072,33.187a4.956,4.956,0,1,0,4.939,4.957,4.95,4.95,0,0,0-4.939-4.957Zm0,7.513a2.474,2.474,0,1,1,1.751-.727,2.474,2.474,0,0,1-1.751.727Zm43.4-7.513a4.957,4.957,0,1,0,4.939,4.958,4.95,4.95,0,0,0-4.939-4.958Zm0,7.513a2.479,2.479,0,1,1,2.472-2.481A2.476,2.476,0,0,1,54.469,40.7ZM65.393,10.08h-43.4a1.37,1.37,0,0,0-1.366,1.372v12.44H17.892V16.255a1.369,1.369,0,0,0-1.368-1.372H7.213A3.4,3.4,0,0,0,3.879,17.8V17.71L2.426,25.947l0,.029A2.057,2.057,0,0,0,.72,28.007l.045.44L.72,28.435,2.77,37.7H4.905v-.084a6.067,6.067,0,0,1,12.133,0V37.7H48.306v-.084a6.066,6.066,0,0,1,12.132,0l-.006.084H66.76V11.452a1.369,1.369,0,0,0-1.366-1.372ZM13.107,17.112v6.78h-8.2L5.932,18.14a1.359,1.359,0,0,1,1.281-1.2h5.894v.168Z" transform="translate(-0.72 -10.08)"/>
</svg>
