<svg xmlns="http://www.w3.org/2000/svg" width="40.276" height="46.03" viewBox="0 0 40.276 46.03">
  <path id="icon_brand" d="M39.2,43.153H37.4v-41A2.158,2.158,0,0,0,35.242,0H5.035A2.158,2.158,0,0,0,2.877,2.158v41h-1.8A1.079,1.079,0,0,0,0,44.232v1.8H40.276v-1.8A1.079,1.079,0,0,0,39.2,43.153ZM11.508,6.833a1.079,1.079,0,0,1,1.079-1.079h3.6a1.079,1.079,0,0,1,1.079,1.079v3.6a1.079,1.079,0,0,1-1.079,1.079h-3.6a1.079,1.079,0,0,1-1.079-1.079Zm0,8.631a1.079,1.079,0,0,1,1.079-1.079h3.6a1.079,1.079,0,0,1,1.079,1.079v3.6a1.079,1.079,0,0,1-1.079,1.079h-3.6a1.079,1.079,0,0,1-1.079-1.079Zm4.675,13.306h-3.6a1.079,1.079,0,0,1-1.079-1.079v-3.6a1.079,1.079,0,0,1,1.079-1.079h3.6a1.079,1.079,0,0,1,1.079,1.079v3.6A1.079,1.079,0,0,1,16.182,28.769Zm6.833,14.384H17.261V35.6a1.079,1.079,0,0,1,1.079-1.079h3.6A1.079,1.079,0,0,1,23.015,35.6ZM28.769,27.69a1.079,1.079,0,0,1-1.079,1.079h-3.6a1.079,1.079,0,0,1-1.079-1.079v-3.6a1.079,1.079,0,0,1,1.079-1.079h3.6a1.079,1.079,0,0,1,1.079,1.079Zm0-8.631a1.079,1.079,0,0,1-1.079,1.079h-3.6a1.079,1.079,0,0,1-1.079-1.079v-3.6a1.079,1.079,0,0,1,1.079-1.079h3.6a1.079,1.079,0,0,1,1.079,1.079Zm0-8.631a1.079,1.079,0,0,1-1.079,1.079h-3.6a1.079,1.079,0,0,1-1.079-1.079v-3.6a1.079,1.079,0,0,1,1.079-1.079h3.6a1.079,1.079,0,0,1,1.079,1.079Z"/>
</svg>
